<?xml version="1.0" encoding="utf-8"?>
<!-- Generator: Adobe Illustrator 16.0.0, SVG Export Plug-In . SVG Version: 6.00 Build 0)  -->
<!DOCTYPE svg PUBLIC "-//W3C//DTD SVG 1.1//EN" "http://www.w3.org/Graphics/SVG/1.1/DTD/svg11.dtd">
<svg version="1.1" id="Layer_1" xmlns="http://www.w3.org/2000/svg" xmlns:xlink="http://www.w3.org/1999/xlink" x="0px" y="0px"
	 width="640px" height="480px" viewBox="0 0 640 480" enable-background="new 0 0 640 480" xml:space="preserve">
<polygon fill="#CC0000" points="0.641,109.181 83.565,150.642 150.646,150.642 0.641,75.64 "/>
<polygon fill="#CC0000" points="0.641,409.189 217.727,300.645 150.646,300.645 0.641,375.648 "/>
<g>
	<rect x="0.641" y="0.64" fill="none" width="640" height="479.999"/>
	<rect x="0.641" y="0.64" fill="#000066" width="640" height="479.999"/>
	<rect x="0.641" y="0.64" fill="none" width="640" height="479.999"/>
	<polygon fill="#FFFFFF" points="0.641,26.976 0.641,134.307 53.312,160.643 0.641,160.643 0.641,320.646 53.315,320.646 
		0.641,346.983 0.641,454.315 240.648,334.31 240.648,480.639 400.651,480.639 400.651,334.312 640.641,454.309 640.641,346.978 
		587.978,320.646 640.641,320.646 640.641,160.643 587.983,160.643 640.641,134.314 640.641,26.983 400.651,146.979 400.651,0.64 
		240.648,0.64 240.648,146.98 	"/>
	<polygon fill="#CC0000" points="640.641,44.871 409.098,160.643 480.652,160.643 640.641,80.648 	"/>
	<polygon fill="#CC0000" points="0.641,192.643 0.641,288.645 272.65,288.645 272.65,480.639 368.65,480.639 368.65,288.645 
		640.641,288.645 640.641,192.643 368.65,192.643 368.65,0.64 272.65,0.64 272.65,192.643 	"/>
	<rect x="0.641" y="0.64" fill="none" width="640" height="479.999"/>
	<polygon fill="#CC0000" points="640.641,364.866 552.204,320.646 480.652,320.646 640.641,400.641 	"/>
	<rect x="0.641" y="0.64" fill="none" width="640" height="479.999"/>
	<rect x="0.641" y="0.64" fill="none" width="640" height="479.999"/>
</g>
<path fill="#BD3D44" d="M0.641,0.64h320.645v36.924H0.641V0.64z M0.641,74.487h320.645v36.924H0.641V74.487z M0.641,148.334h320.645
	v36.922H0.641V148.334z M0.641,222.18h320.645v36.922H0.641V222.18z M0.641,296.025h320.645v36.925H0.641V296.025z M0.641,369.874
	h320.645v36.924H0.641V369.874z M0.641,443.721h320.645v36.921H0.641V443.721z"/>
<path fill="#FFFFFF" d="M0.641,37.564h320.645v36.922H0.641V37.564z M0.641,111.41h320.645v36.923H0.641V111.41z M0.641,185.257
	h320.645v36.924H0.641V185.257z M0.641,259.102h320.645v36.923H0.641V259.102z M0.641,332.95h320.645v36.924H0.641V332.95z
	 M0.641,406.798h320.645v36.924H0.641V406.798z"/>
<path fill="#192F5D" d="M0.641,0.64h320.637v258.458H0.641V0.64z"/>
<path fill="#FFFFFF" d="M31.042,11.703l3.318,10.215h10.743l-8.691,6.314l3.32,10.215l-8.69-6.312l-8.691,6.312l3.321-10.215
	l-8.689-6.314H27.72L31.042,11.703z M91.842,11.703l3.319,10.215h10.742l-8.692,6.314l3.321,10.215l-8.69-6.312l-8.691,6.312
	l3.321-10.215l-8.691-6.314h10.742L91.842,11.703z M152.643,11.703l3.319,10.215h10.74l-8.69,6.314l3.322,10.215l-8.691-6.312
	l-8.69,6.312l3.318-10.215l-8.689-6.314h10.742L152.643,11.703z M213.441,11.703l3.321,10.215h10.739l-8.689,6.314l3.318,10.215
	l-8.689-6.312l-8.69,6.312l3.319-10.215l-8.69-6.314h10.743L213.441,11.703z M274.243,11.703l3.318,10.215h10.742l-8.69,6.314
	l3.319,10.215l-8.69-6.312l-8.688,6.312l3.318-10.215l-8.689-6.314h10.741L274.243,11.703z"/>
<path fill="#FFFFFF" d="M61.443,37.55l3.318,10.217h10.743l-8.692,6.312l3.323,10.216l-8.691-6.312l-8.691,6.312l3.319-10.216
	l-8.691-6.312h10.742L61.443,37.55z M122.24,37.55l3.321,10.217h10.74l-8.69,6.312l3.32,10.216l-8.69-6.312l-8.69,6.312l3.32-10.216
	l-8.692-6.312h10.742L122.24,37.55z M183.042,37.55l3.32,10.217h10.741l-8.691,6.312l3.32,10.216l-8.69-6.312l-8.688,6.312
	l3.318-10.216l-8.689-6.312h10.741L183.042,37.55z M243.844,37.55l3.319,10.217h10.742l-8.69,6.312l3.318,10.216l-8.689-6.312
	l-8.69,6.312l3.321-10.216l-8.69-6.312h10.742L243.844,37.55z M304.641,37.55l3.32,10.217h10.74l-8.688,6.312l3.318,10.216
	l-8.689-6.312l-8.69,6.312l3.32-10.216l-8.69-6.312h10.742L304.641,37.55z"/>
<path fill="#FFFFFF" d="M31.042,63.396l3.318,10.214h10.743l-8.691,6.314l3.32,10.215l-8.69-6.313L22.35,90.14l3.321-10.215
	l-8.689-6.314H27.72L31.042,63.396z M91.842,63.396l3.319,10.214h10.742l-8.692,6.314l3.321,10.215l-8.69-6.313l-8.691,6.313
	l3.321-10.215l-8.691-6.314h10.742L91.842,63.396z M152.643,63.396l3.319,10.214h10.74l-8.69,6.314l3.322,10.215l-8.691-6.313
	l-8.69,6.313l3.318-10.215l-8.689-6.314h10.742L152.643,63.396z M213.441,63.396l3.321,10.214h10.739l-8.689,6.314l3.318,10.215
	l-8.689-6.313l-8.69,6.313l3.319-10.215l-8.69-6.314h10.743L213.441,63.396z M274.243,63.396l3.318,10.214h10.742l-8.69,6.314
	l3.319,10.215l-8.69-6.313l-8.688,6.313l3.318-10.215l-8.689-6.314h10.741L274.243,63.396z"/>
<g>
	<path fill="#FFFFFF" d="M61.443,89.241l3.318,10.216h10.743l-8.693,6.313l3.323,10.216l-8.691-6.313l-8.691,6.313l3.32-10.216
		l-8.692-6.313h10.743L61.443,89.241z M122.24,89.241l3.321,10.216h10.74l-8.69,6.313l3.32,10.216l-8.69-6.313l-8.69,6.313
		l3.321-10.216l-8.692-6.313h10.742L122.24,89.241z M183.042,89.241l3.32,10.216h10.741l-8.691,6.313l3.32,10.216l-8.69-6.313
		l-8.688,6.313l3.318-10.216l-8.689-6.313h10.741L183.042,89.241z M243.844,89.241l3.319,10.216h10.742l-8.69,6.313l3.318,10.216
		l-8.689-6.313l-8.69,6.313l3.32-10.216l-8.69-6.313h10.742L243.844,89.241z M304.641,89.241l3.32,10.216h10.74l-8.688,6.313
		l3.318,10.216l-8.689-6.313l-8.69,6.313l3.32-10.216l-8.69-6.313h10.742L304.641,89.241z"/>
</g>
<path fill="#FFFFFF" d="M31.042,115.088l3.318,10.215h10.743l-8.691,6.314l3.32,10.215l-8.69-6.314l-8.691,6.314l3.321-10.215
	l-8.689-6.314H27.72L31.042,115.088z M91.842,115.088l3.319,10.215h10.742l-8.692,6.314l3.321,10.215l-8.69-6.314l-8.691,6.314
	l3.321-10.215l-8.691-6.314h10.742L91.842,115.088z M152.643,115.088l3.319,10.215h10.74l-8.69,6.314l3.322,10.215l-8.691-6.314
	l-8.69,6.314l3.318-10.215l-8.689-6.314h10.742L152.643,115.088z M213.441,115.088l3.321,10.215h10.739l-8.689,6.314l3.318,10.215
	l-8.689-6.314l-8.69,6.314l3.319-10.215l-8.69-6.314h10.743L213.441,115.088z M274.243,115.088l3.318,10.215h10.742l-8.69,6.314
	l3.319,10.215l-8.69-6.314l-8.688,6.314l3.318-10.215l-8.689-6.314h10.741L274.243,115.088z"/>
<g>
	<path fill="#FFFFFF" d="M61.443,140.934l3.318,10.216h10.743l-8.693,6.313l3.323,10.215l-8.691-6.311l-8.691,6.311l3.32-10.215
		l-8.692-6.313h10.743L61.443,140.934z M122.24,140.934l3.321,10.216h10.74l-8.69,6.313l3.32,10.215l-8.69-6.311l-8.69,6.311
		l3.321-10.215l-8.692-6.313h10.742L122.24,140.934z M183.042,140.934l3.32,10.216h10.741l-8.691,6.313l3.32,10.215l-8.69-6.311
		l-8.688,6.311l3.318-10.215l-8.689-6.313h10.741L183.042,140.934z M243.844,140.934l3.319,10.216h10.742l-8.69,6.313l3.318,10.215
		l-8.689-6.311l-8.69,6.311l3.32-10.215l-8.69-6.313h10.742L243.844,140.934z M304.641,140.934l3.32,10.216h10.74l-8.688,6.313
		l3.318,10.215l-8.689-6.311l-8.69,6.311l3.32-10.215l-8.69-6.313h10.742L304.641,140.934z"/>
</g>
<path fill="#FFFFFF" d="M31.042,166.781l3.318,10.215h10.743l-8.691,6.312l3.32,10.217l-8.69-6.314l-8.691,6.314l3.321-10.217
	l-8.689-6.312H27.72L31.042,166.781z M91.842,166.781l3.319,10.215h10.742l-8.692,6.312l3.321,10.217l-8.69-6.314l-8.691,6.314
	l3.321-10.217l-8.691-6.312h10.742L91.842,166.781z M152.643,166.781l3.319,10.215h10.74l-8.69,6.312l3.322,10.217l-8.691-6.314
	l-8.69,6.314l3.318-10.217l-8.689-6.312h10.742L152.643,166.781z M213.441,166.781l3.321,10.215h10.739l-8.689,6.312l3.318,10.217
	l-8.689-6.314l-8.69,6.314l3.319-10.217l-8.69-6.312h10.743L213.441,166.781z M274.243,166.781l3.318,10.215h10.742l-8.69,6.312
	l3.319,10.217l-8.69-6.314l-8.688,6.314l3.318-10.217l-8.689-6.312h10.741L274.243,166.781z"/>
<g>
	<path fill="#FFFFFF" d="M61.443,192.627l3.318,10.216h10.743l-8.693,6.313l3.323,10.216l-8.691-6.314l-8.691,6.314l3.32-10.216
		l-8.692-6.313h10.743L61.443,192.627z M122.24,192.627l3.321,10.216h10.74l-8.69,6.313l3.32,10.216l-8.69-6.314l-8.69,6.314
		l3.321-10.216l-8.692-6.313h10.742L122.24,192.627z M183.042,192.627l3.32,10.216h10.741l-8.691,6.313l3.32,10.216l-8.69-6.314
		l-8.688,6.314l3.318-10.216l-8.689-6.313h10.741L183.042,192.627z M243.844,192.627l3.319,10.216h10.742l-8.69,6.313l3.318,10.216
		l-8.689-6.314l-8.69,6.314l3.32-10.216l-8.69-6.313h10.742L243.844,192.627z M304.641,192.627l3.32,10.216h10.74l-8.688,6.313
		l3.318,10.216l-8.689-6.314l-8.69,6.314l3.32-10.216l-8.69-6.313h10.742L304.641,192.627z"/>
</g>
<path fill="#FFFFFF" d="M31.042,218.474l3.318,10.215h10.743l-8.691,6.314l3.32,10.214l-8.69-6.314l-8.691,6.314l3.321-10.214
	l-8.689-6.314H27.72L31.042,218.474z M91.842,218.474l3.319,10.215h10.742l-8.692,6.314l3.321,10.214l-8.69-6.314l-8.691,6.314
	l3.321-10.214l-8.691-6.314h10.742L91.842,218.474z M152.643,218.474l3.319,10.215h10.74l-8.69,6.314l3.322,10.214l-8.691-6.314
	l-8.69,6.314l3.318-10.214l-8.689-6.314h10.742L152.643,218.474z M213.441,218.474l3.321,10.215h10.739l-8.689,6.314l3.318,10.214
	l-8.689-6.314l-8.69,6.314l3.319-10.214l-8.69-6.314h10.743L213.441,218.474z M274.243,218.474l3.318,10.215h10.742l-8.69,6.314
	l3.319,10.214l-8.69-6.314l-8.688,6.314l3.318-10.214l-8.689-6.314h10.741L274.243,218.474z"/>
</svg>
